{"title":"Bruno.2009.iTALiAN.MD.R5.XviD-SiLENT[survivalofmisa]","uid":5136107,"size":729448448,"categoryP":"video","categoryS":"movies","magnet":"?xt=urn:btih:241a8d2f150d1587c7628c390d8a123b59196b3c&amp;dn=Bruno.2009.iTALiAN.MD.R5.XviD-SiLENT%5Bsurvivalofmisa%5D&amp;tr=udp%3A%2F%2Ftracker.openbittorrent.com%3A80&amp;tr=udp%3A%2F%2Fopen.demonii.com%3A1337&amp;tr=udp%3A%2F%2Ftracker.coppersurfer.tk%3A6969&amp;tr=udp%3A%2F%2Fexodus.desync.com%3A6969","seeders":1,"leechers":0,"uploader":"misafor","files":1,"time":1256493849,"description":"General\nComplete name                    : Bruno.2009.iTALiAN.MD.R5.XviD-SiLENT[survivalofmisa].avi\nFormat                           : AVI\nFormat/Info                      : Audio Video Interleave\nFile size                        : 696 MiB\nDuration                         : 1h 17mn\nOverall bit rate                 : 1 255 Kbps\nWriting application              : VirtualDubMod 1.5.10.2 (build 2542/release)\nWriting library                  : VirtualDubMod build 2542/release\n\nVideo\nID                               : 0\nFormat                           : MPEG-4 Visual\nFormat profile                   : AdvancedSimple@L5\nFormat settings, BVOP            : Yes\nFormat settings, QPel            : No\nFormat settings, GMC             : No warppoints\nFormat settings, Matrix          : Default (H.263)\nCodec ID                         : XVID\nCodec ID/Hint                    : XviD\nDuration                         : 1h 17mn\nBit rate                         : 1 123 Kbps\nWidth                            : 624 pixels\nHeight                           : 336 pixels\nDisplay aspect ratio             : 1.857\nFrame rate                       : 25.000 fps\nResolution                       : 24 bits\nColorimetry                      : 4:2:0\nScan type                        : Progressive\nBits/(Pixel*Frame)               : 0.214\nStream size                      : 622 MiB (89%)\nWriting library                  : XviD 1.2.1 (UTC 2008-12-04)\n\nAudio\nID                               : 1\nFormat                           : MPEG Audio\nFormat version                   : Version 1\nFormat profile                   : Layer 3\nCodec ID                         : 55\nCodec ID/Hint                    : MP3\nDuration                         : 1h 17mn\nBit rate mode                    : Variable\nBit rate                         : 120 Kbps\nNominal bit rate                 : 128 Kbps\nChannel(s)                       : 2 channels\nSampling rate                    : 48.0 KHz\nResolution                       : 16 bits\nStream size                      : 66.4 MiB (10%)\nAlignment                        : Aligned on interleaves\nInterleave, duration             : 24 ms (0.60 video frame)\nInterleave, preload duration     : 538 ms\nWriting library                  : LAME3.99a\nEncoding settings                : -m j -V 4 -q 3 -lowpass 17 --abr 128\n\n\n\n\n","torrent":{"xt":"urn:btih:241a8d2f150d1587c7628c390d8a123b59196b3c","amp;dn":"Bruno.2009.iTALiAN.MD.R5.XviD-SiLENT%5Bsurvivalofmisa%5D","amp;tr":["udp%3A%2F%2Ftracker.openbittorrent.com%3A80","udp%3A%2F%2Fopen.demonii.com%3A1337","udp%3A%2F%2Ftracker.coppersurfer.tk%3A6969","udp%3A%2F%2Fexodus.desync.com%3A6969"],"infoHash":"241a8d2f150d1587c7628c390d8a123b59196b3c","infoHashBuffer":{"type":"Buffer","data":[36,26,141,47,21,13,21,135,199,98,140,57,13,138,18,59,89,25,107,60]},"announce":[],"urlList":[]}}